<svg xmlns="http://www.w3.org/2000/svg" viewBox="0 0 24 24" width="64" height="64"> <defs> <linearGradient id="grad2" x1="0%" y1="100%" x2="100%" y2="0%"> <stop offset="0%" style="stop-color:#480048;stop-opacity:1" /> <stop offset="100%" style="stop-color:#C04848;stop-opacity:1" /> </linearGradient> </defs> <path fill="url(#grad2)" d="M14.83,13.41L13.41,14.83L18.29,19.71C18.68,20.1 19.31,20.1 19.7,19.71C20.09,19.32 20.09,18.69 19.7,18.3L14.83,13.41Z"/> <path fill="url(#grad2)" d="M11,3C6.58,3 3,6.58 3,11C3,15.42 6.58,19 11,19C13.14,19 15.08,18.16 16.5,16.79L14.88,15.17C13.91,16.29 12.54,17 11,17C7.69,17 5,14.31 5,11C5,7.69 7.69,5 11,5C14.31,5 17,7.69 17,11C17,11.79 16.84,12.54 16.56,13.24L18.37,15.05C18.77,13.8 19,12.43 19,11C19,6.58 15.42,3 11,3Z"/> <path fill="#FFD700" d="M19.5,7L20.2,8.6L21.8,9.3L20.2,10L19.5,11.6L18.8,10L17.2,9.3L18.8,8.6L19.5,7M16,2L16.4,3.1L17.5,3.5L16.4,3.9L16,5L15.6,3.9L14.5,3.5L15.6,3.1L16,2M2,13L2.4,14.1L3.5,14.5L2.4,14.9L2,16L1.6,14.9L0.5,14.5L1.6,14.1L2,13Z"/> </svg>